# xmcd
#
# Track frame offsets: 
#        150
#        12762
#        30939
#        47736
#        68178
#        88119
#        103707
#        128471
#        141274
#        155455
#        171212
#        185330
#        199111
#        224202
#        240273
#        258381
#        270163
#        283305
#        299912
#        314664
#
# Disc length: 4381 seconds
#
# Revision: 2
# Processed by: cddbd v1.5.2PL0 Copyright (c) Steve Scherf et al.
# Submitted via: ExactAudioCopyFreeDBPlugin 1.0
#
DISCID=2c111b14
DTITLE=J.J. Cale - Collected [Disc3-3]
DYEAR=2006
DGENRE=General Blues
TTITLE0=Low down  (1996)
TTITLE1=Guitar man  (1996)
TTITLE2=Stone River  (2004)
TTITLE3=The problem  (2004)
TTITLE4=Midnight in Memphis  (1997)
TTITLE5=Woke up this morning  (1997)
TTITLE6=Durango  (1997)
TTITLE7=Things ain't simple  (1997)
TTITLE8=Wish I had me a dollar  (live, 1997)
TTITLE9=Sant Cruz  (1997)
TTITLE10=Cocaine  (live, 1994)
TTITLE11=After midnight  (live, 1996)
TTITLE12=Call me the breeze  (live, 1996)
TTITLE13=Travelin' light [2 Meter Sessie, 1994]
TTITLE14=Tiajuana [2 Meter Sessie, 1994]
TTITLE15=Hold on [2 Meter Sessie, 1994]
TTITLE16=Rose in the garden [2 Meter Sessie, 1994]
TTITLE17=After midnight [2 Meter Sessie, 1994]
TTITLE18=Ride me high [2 Meter Sessie, 1994]
TTITLE19=Devil in disguise [2 Meter Sessie, 1994]
EXTD=
EXTT0=
EXTT1=
EXTT2=
EXTT3=
EXTT4=
EXTT5=
EXTT6=
EXTT7=
EXTT8=
EXTT9=
EXTT10=
EXTT11=
EXTT12=
EXTT13=
EXTT14=
EXTT15=
EXTT16=
EXTT17=
EXTT18=
EXTT19=
PLAYORDER=
